<svg xmlns="http://www.w3.org/2000/svg" viewBox="0 0 24 24" id="Analytics-Net--Streamline-Ultimate" height="24" width="24">
  <desc>
    Analytics Net Streamline Icon: https://streamlinehq.com
  </desc>
  <title>analytics-net</title>
  <path d="M4.004 1.5h16s2 0 2 2v17s0 2 -2 2h-16s-2 0 -2 -2v-17s0 -2 2 -2" fill="none" stroke="currentColor" stroke-linecap="round" stroke-linejoin="round" stroke-width="1"></path>
  <path d="m2 14.5 3.655 -4.02a2.859 2.859 0 0 1 3.149 -0.616l1.392 0.667a3.491 3.491 0 0 0 3.366 -0.385l1.876 -1.5A11.743 11.743 0 0 1 18.93 6.86L22 6" fill="none" stroke="currentColor" stroke-linecap="round" stroke-linejoin="round" stroke-width="1"></path>
  <path d="m7.004 9.718 0 12.782" fill="none" stroke="currentColor" stroke-linecap="round" stroke-linejoin="round" stroke-width="1"></path>
  <path d="m12.004 10.766 0 11.734" fill="none" stroke="currentColor" stroke-linecap="round" stroke-linejoin="round" stroke-width="1"></path>
  <path d="m17.004 7.663 0 14.837" fill="none" stroke="currentColor" stroke-linecap="round" stroke-linejoin="round" stroke-width="1"></path>
  <path d="m2.004 14.5 20 0" fill="none" stroke="currentColor" stroke-linecap="round" stroke-linejoin="round" stroke-width="1"></path>
  <path d="m12.972 10.5 9.032 0" fill="none" stroke="currentColor" stroke-linecap="round" stroke-linejoin="round" stroke-width="1"></path>
  <path d="m2.004 18.5 20 0" fill="none" stroke="currentColor" stroke-linecap="round" stroke-linejoin="round" stroke-width="1"></path>
</svg>