<svg xmlns="http://www.w3.org/2000/svg" viewBox="0 0 24 24" id="Factory-Industrial-Robot-Arm-1--Streamline-Ultimate" height="24" width="24">
  <desc>
    Factory Industrial Robot Arm 1 Streamline Icon: https://streamlinehq.com
  </desc>
  <path d="m9.761 18.797 -5.23 -3.76" fill="none" stroke="currentColor" stroke-linecap="round" stroke-linejoin="round" stroke-width="1"></path>
  <path d="m7.046 12.173 4.299 3.187" fill="none" stroke="currentColor" stroke-linecap="round" stroke-linejoin="round" stroke-width="1"></path>
  <path d="M0.821 11.884a3.119 3.119 0 1 0 6.238 0 3.119 3.119 0 1 0 -6.238 0" fill="none" stroke="currentColor" stroke-linecap="round" stroke-linejoin="round" stroke-width="1"></path>
  <path d="m6.797 10.633 4.668 -4.546" fill="none" stroke="currentColor" stroke-linecap="round" stroke-linejoin="round" stroke-width="1"></path>
  <path d="m10.032 2.809 -6.28 5.962" fill="none" stroke="currentColor" stroke-linecap="round" stroke-linejoin="round" stroke-width="1"></path>
  <path d="M9.94 3.637a2.731 2.731 0 1 0 5.462 0 2.731 2.731 0 1 0 -5.462 0" fill="none" stroke="currentColor" stroke-linecap="round" stroke-linejoin="round" stroke-width="1"></path>
  <path d="M15.2 4.669 17.674 7.2a1.381 1.381 0 0 1 0.026 1.905h0a1.381 1.381 0 0 1 -2 0.025l-2.72 -2.779" fill="none" stroke="currentColor" stroke-linecap="round" stroke-linejoin="round" stroke-width="1"></path>
  <path d="m1.082 23.095 22 0" fill="none" stroke="currentColor" stroke-linecap="round" stroke-linejoin="round" stroke-width="1"></path>
  <path d="M9.761 20.669v-2.722a2.911 2.911 0 0 1 5.821 0v2.68" fill="none" stroke="currentColor" stroke-linecap="round" stroke-linejoin="round" stroke-width="1"></path>
  <path d="M3.44 11.718a0.5 0.5 0 1 0 1 0 0.5 0.5 0 1 0 -1 0" fill="none" stroke="currentColor" stroke-linecap="round" stroke-linejoin="round" stroke-width="1"></path>
  <path d="M12.171 17.925a0.5 0.5 0 1 0 1 0 0.5 0.5 0 1 0 -1 0" fill="none" stroke="currentColor" stroke-linecap="round" stroke-linejoin="round" stroke-width="1"></path>
  <path d="M9.179 20.669h6.937a1 1 0 0 1 1 1v1.426l0 0H8.179l0 0v-1.426a1 1 0 0 1 1 -1" fill="none" stroke="currentColor" stroke-linecap="round" stroke-linejoin="round" stroke-width="1"></path>
  <path d="M17.4 6.909a1.251 1.251 0 0 1 0.758 -0.451 4.255 4.255 0 0 1 5.021 4.182 1.25 1.25 0 1 1 -2.5 0A1.753 1.753 0 0 0 18.6 8.92a1.264 1.264 0 0 1 -0.573 -0.031" fill="none" stroke="currentColor" stroke-linecap="round" stroke-linejoin="round" stroke-width="1"></path>
  <path d="M17.122 9.426a1.251 1.251 0 0 1 -0.076 0.7 1.752 1.752 0 0 0 1.233 2.4 1.25 1.25 0 0 1 -0.538 2.442 4.253 4.253 0 0 1 -3 -5.8 1.243 1.243 0 0 1 0.31 -0.443" fill="none" stroke="currentColor" stroke-linecap="round" stroke-linejoin="round" stroke-width="1"></path>
</svg>