<svg viewBox="0 0 24 24" xmlns="http://www.w3.org/2000/svg" id="Notes-Checklist-Flip--Streamline-Ultimate" height="24" width="24">
  <desc>
    Notes Checklist Flip Streamline Icon: https://streamlinehq.com
  </desc>
  <path d="M17.5 17.5a1 1 0 0 0 -1 1v5h-14a1 1 0 0 1 -1 -1v-19a1 1 0 0 1 1 -1h19a1 1 0 0 1 1 1v14Z" fill="none" stroke="currentColor" stroke-linecap="round" stroke-linejoin="round" stroke-width="1"></path>
  <path d="m22.5 17.5 -6 6" fill="none" stroke="currentColor" stroke-linecap="round" stroke-linejoin="round" stroke-width="1"></path>
  <path d="m4.5 0.5 0 4.5" fill="none" stroke="currentColor" stroke-linecap="round" stroke-linejoin="round" stroke-width="1"></path>
  <path d="m9.5 0.5 0 4.5" fill="none" stroke="currentColor" stroke-linecap="round" stroke-linejoin="round" stroke-width="1"></path>
  <path d="m14.5 0.5 0 4.5" fill="none" stroke="currentColor" stroke-linecap="round" stroke-linejoin="round" stroke-width="1"></path>
  <path d="m19.5 0.5 0 4.5" fill="none" stroke="currentColor" stroke-linecap="round" stroke-linejoin="round" stroke-width="1"></path>
  <path d="m9.5 7.5 -3 3L5 9" fill="none" stroke="currentColor" stroke-linecap="round" stroke-linejoin="round" stroke-width="1"></path>
  <path d="m9.5 13 -3 3L5 14.5" fill="none" stroke="currentColor" stroke-linecap="round" stroke-linejoin="round" stroke-width="1"></path>
  <path d="m11.5 9.5 6.5 0" fill="none" stroke="currentColor" stroke-linecap="round" stroke-linejoin="round" stroke-width="1"></path>
  <path d="m11.5 14.5 6.5 0" fill="none" stroke="currentColor" stroke-linecap="round" stroke-linejoin="round" stroke-width="1"></path>
</svg>