<svg viewBox="0 0 24 24" xmlns="http://www.w3.org/2000/svg" id="Shipment-Star--Streamline-Ultimate" height="24" width="24">
  <desc>
    Shipment Star Streamline Icon: https://streamlinehq.com
  </desc>
  <path d="m18.206 11.93 1.539 3.57h2.995a0.735 0.735 0 0 1 0.517 1.283l-2.6 2.316 1.44 3.313a0.785 0.785 0 0 1 -1.117 0.982l-3.48 -1.961 -3.48 1.961a0.785 0.785 0 0 1 -1.117 -0.982l1.44 -3.313 -2.6 -2.316a0.734 0.734 0 0 1 0.514 -1.283h3l1.541 -3.57a0.8 0.8 0 0 1 1.408 0" fill="none" stroke="currentColor" stroke-linecap="round" stroke-linejoin="round" stroke-width="1"></path>
  <path d="M8.5 15.5h-7a1 1 0 0 1 -1 -1V4.914a1 1 0 0 1 0.293 -0.707L4.207 0.793A1 1 0 0 1 4.914 0.5h5.172a1 1 0 0 1 0.707 0.293l3.414 3.414a1 1 0 0 1 0.293 0.707V10.5" fill="none" stroke="currentColor" stroke-linecap="round" stroke-linejoin="round" stroke-width="1"></path>
  <path d="M14.41 4.5 0.59 4.5" fill="none" stroke="currentColor" stroke-linecap="round" stroke-linejoin="round" stroke-width="1"></path>
  <path d="m7.5 0.5 0 4" fill="none" stroke="currentColor" stroke-linecap="round" stroke-linejoin="round" stroke-width="1"></path>
</svg>