<svg xmlns="http://www.w3.org/2000/svg" fill="none" viewBox="0 0 24 24" id="Video-Player-Movie--Streamline-Ultimate" height="24" width="24">
  <desc>
    Video Player Movie Streamline Icon: https://streamlinehq.com
  </desc>
  <path stroke="currentColor" stroke-linecap="round" stroke-linejoin="round" d="M21.5 2.5h-19c-1.10457 0 -2 0.89543 -2 2v15c0 1.1046 0.89543 2 2 2h19c1.1046 0 2 -0.8954 2 -2v-15c0 -1.10457 -0.8954 -2 -2 -2" stroke-width="1"></path>
  <path stroke="currentColor" stroke-linecap="round" stroke-linejoin="round" d="M0.5 6.5h23" stroke-width="1"></path>
  <path stroke="currentColor" stroke-linecap="round" stroke-linejoin="round" d="M0.5 17.5h23" stroke-width="1"></path>
  <path stroke="currentColor" d="M3.76001 4.75c-0.13807 0 -0.25 -0.11193 -0.25 -0.25s0.11193 -0.25 0.25 -0.25" stroke-width="1"></path>
  <path stroke="currentColor" d="M3.76001 4.75c0.13807 0 0.25 -0.11193 0.25 -0.25s-0.11193 -0.25 -0.25 -0.25" stroke-width="1"></path>
  <path stroke="currentColor" d="M7.88 4.75c-0.13807 0 -0.25 -0.11193 -0.25 -0.25s0.11193 -0.25 0.25 -0.25" stroke-width="1"></path>
  <path stroke="currentColor" d="M7.88 4.75c0.13808 0 0.25 -0.11193 0.25 -0.25s-0.11192 -0.25 -0.25 -0.25" stroke-width="1"></path>
  <path stroke="currentColor" d="M12 4.75c-0.1381 0 -0.25 -0.11193 -0.25 -0.25s0.1119 -0.25 0.25 -0.25" stroke-width="1"></path>
  <path stroke="currentColor" d="M12 4.75c0.1381 0 0.25 -0.11193 0.25 -0.25s-0.1119 -0.25 -0.25 -0.25" stroke-width="1"></path>
  <path stroke="currentColor" d="M16.12 4.75c-0.1381 0 -0.25 -0.11193 -0.25 -0.25s0.1119 -0.25 0.25 -0.25" stroke-width="1"></path>
  <path stroke="currentColor" d="M16.12 4.75c0.1381 0 0.25 -0.11193 0.25 -0.25s-0.1119 -0.25 -0.25 -0.25" stroke-width="1"></path>
  <path stroke="currentColor" d="M20.24 4.75c-0.1381 0 -0.25 -0.11193 -0.25 -0.25s0.1119 -0.25 0.25 -0.25" stroke-width="1"></path>
  <path stroke="currentColor" d="M20.24 4.75c0.1381 0 0.25 -0.11193 0.25 -0.25s-0.1119 -0.25 -0.25 -0.25" stroke-width="1"></path>
  <path stroke="currentColor" d="M3.76001 19.75c-0.13807 0 -0.25 -0.1119 -0.25 -0.25s0.11193 -0.25 0.25 -0.25" stroke-width="1"></path>
  <path stroke="currentColor" d="M3.76001 19.75c0.13807 0 0.25 -0.1119 0.25 -0.25s-0.11193 -0.25 -0.25 -0.25" stroke-width="1"></path>
  <g>
    <path stroke="currentColor" d="M7.88 19.75c-0.13807 0 -0.25 -0.1119 -0.25 -0.25s0.11193 -0.25 0.25 -0.25" stroke-width="1"></path>
    <path stroke="currentColor" d="M7.88 19.75c0.13808 0 0.25 -0.1119 0.25 -0.25s-0.11192 -0.25 -0.25 -0.25" stroke-width="1"></path>
  </g>
  <g>
    <path stroke="currentColor" d="M12 19.75c-0.1381 0 -0.25 -0.1119 -0.25 -0.25s0.1119 -0.25 0.25 -0.25" stroke-width="1"></path>
    <path stroke="currentColor" d="M12 19.75c0.1381 0 0.25 -0.1119 0.25 -0.25s-0.1119 -0.25 -0.25 -0.25" stroke-width="1"></path>
  </g>
  <g>
    <path stroke="currentColor" d="M16.12 19.75c-0.1381 0 -0.25 -0.1119 -0.25 -0.25s0.1119 -0.25 0.25 -0.25" stroke-width="1"></path>
    <path stroke="currentColor" d="M16.12 19.75c0.1381 0 0.25 -0.1119 0.25 -0.25s-0.1119 -0.25 -0.25 -0.25" stroke-width="1"></path>
  </g>
  <g>
    <path stroke="currentColor" d="M20.24 19.75c-0.1381 0 -0.25 -0.1119 -0.25 -0.25s0.1119 -0.25 0.25 -0.25" stroke-width="1"></path>
    <path stroke="currentColor" d="M20.24 19.75c0.1381 0 0.25 -0.1119 0.25 -0.25s-0.1119 -0.25 -0.25 -0.25" stroke-width="1"></path>
  </g>
  <path stroke="currentColor" stroke-linecap="round" stroke-linejoin="round" d="M15 12.67c0.1389 -0.0487 0.2592 -0.1393 0.3443 -0.2594 0.0851 -0.12 0.1308 -0.2635 0.1308 -0.4106 0 -0.1472 -0.0457 -0.2907 -0.1308 -0.4107s-0.2054 -0.2106 -0.3443 -0.2593l-5 -2.33003c-0.0497 -0.02467 -0.10446 -0.03751 -0.15997 -0.03751s-0.11027 0.01284 -0.16 0.03751c-0.04498 0.03416 -0.08179 0.07791 -0.10773 0.12807 -0.02595 0.05017 -0.04039 0.10549 -0.04227 0.16193V14.59c0.00188 0.0564 0.01632 0.1117 0.04227 0.1619 0.02594 0.0502 0.06275 0.0939 0.10773 0.1281 0.03922 0.0449 0.089 0.0794 0.14485 0.1004 0.05586 0.0209 0.11604 0.0277 0.17512 0.0196z" stroke-width="1"></path>
</svg>